HIERARCHY
ROOT Hips
{
  OFFSET 5.72205e-005 65.662 3.42586
  CHANNELS 6 Xposition Yposition Zposition Zrotation Xrotation Yrotation
  JOINT Chest
  {
    OFFSET 0 8.7983 -4.7612
    CHANNELS 6 Xposition Yposition Zposition Zrotation Xrotation Yrotation
    JOINT Chest2
    {
      OFFSET 0 8.0291 0.4195
      CHANNELS 6 Xposition Yposition Zposition Zrotation Xrotation Yrotation
      JOINT Chest3
      {
        OFFSET 0 9.9351 -2.2114
        CHANNELS 6 Xposition Yposition Zposition Zrotation Xrotation Yrotation
        JOINT Neck
        {
          OFFSET 0 22.3885 -0.4656
          CHANNELS 6 Xposition Yposition Zposition Zrotation Xrotation Yrotation
          JOINT Head
          {
            OFFSET -0.0001 12.643 3.4389
            CHANNELS 6 Xposition Yposition Zposition Zrotation Xrotation Yrotation
            End Site
            {
              OFFSET 0.0001 17.6655 0.5274
            }
          }
        }
        JOINT LeftCollar
        {
          OFFSET 2.2603 21.606 7.4023
          CHANNELS 6 Xposition Yposition Zposition Zrotation Xrotation Yrotation
          JOINT LeftShoulder
          {
            OFFSET 13.5163 -1.1332 -5.0146
            CHANNELS 6 Xposition Yposition Zposition Zrotation Xrotation Yrotation
            JOINT LeftElbow
            {
              OFFSET -0.0995 -28.05 -0.2431
              CHANNELS 6 Xposition Yposition Zposition Zrotation Xrotation Yrotation
              JOINT LeftWrist
              {
                OFFSET 0.0679 -23.3996 -0.1402
                CHANNELS 6 Xposition Yposition Zposition Zrotation Xrotation Yrotation
                JOINT LeftFinger1
                {
                  OFFSET 0.7932 -9.069 2.5189
                  CHANNELS 6 Xposition Yposition Zposition Zrotation Xrotation Yrotation
                  JOINT LeftFinger11
                  {
                    OFFSET -0.8272 -3.3923 0.5977
                    CHANNELS 6 Xposition Yposition Zposition Zrotation Xrotation Yrotation
                    JOINT LeftFinger12
                    {
                      OFFSET -0.5649 -2.3158 0.4082
                      CHANNELS 6 Xposition Yposition Zposition Zrotation Xrotation Yrotation
                      End Site
                      {
                        OFFSET -0.4919 -1.6479 0.2673
                      }
                    }
                  }
                }
                JOINT LeftFinger2
                {
                  OFFSET 0.9159 -9.2044 0.2193
                  CHANNELS 6 Xposition Yposition Zposition Zrotation Xrotation Yrotation
                  JOINT LeftFinger21
                  {
                    OFFSET 0.0117 -4.1944 -0.0248
                    CHANNELS 6 Xposition Yposition Zposition Zrotation Xrotation Yrotation
                    JOINT LeftFinger22
                    {
                      OFFSET 0.0071 -2.3249 -0.0142
                      CHANNELS 6 Xposition Yposition Zposition Zrotation Xrotation Yrotation
                      End Site
                      {
                        OFFSET -0.1475 -2.0882 0.0028
                      }
                    }
                  }
                }
                JOINT LeftFinger3
                {
                  OFFSET 0.6113 -8.7231 -2.0637
                  CHANNELS 6 Xposition Yposition Zposition Zrotation Xrotation Yrotation
                  JOINT LeftFinger31
                  {
                    OFFSET -0.1927 -3.8059 -0.2383
                    CHANNELS 6 Xposition Yposition Zposition Zrotation Xrotation Yrotation
                    JOINT LeftFinger32
                    {
                      OFFSET -0.1091 -2.1688 -0.1362
                      CHANNELS 6 Xposition Yposition Zposition Zrotation Xrotation Yrotation
                      End Site
                      {
                        OFFSET -0.2358 -1.9176 -0.0906
                      }
                    }
                  }
                }
                JOINT LeftFinger4
                {
                  OFFSET -0.6151 -8.0947 -3.5641
                  CHANNELS 6 Xposition Yposition Zposition Zrotation Xrotation Yrotation
                  JOINT LeftFinger41
                  {
                    OFFSET -0.4882 -2.341 -0.6462
                    CHANNELS 6 Xposition Yposition Zposition Zrotation Xrotation Yrotation
                    JOINT LeftFinger42
                    {
                      OFFSET -0.3575 -1.7167 -0.4742
                      CHANNELS 6 Xposition Yposition Zposition Zrotation Xrotation Yrotation
                      End Site
                      {
                        OFFSET -0.4187 -1.5237 -0.3496
                      }
                    }
                  }
                }
                JOINT LeftFinger0
                {
                  OFFSET -1.42 -1.8761 1.4223
                  CHANNELS 6 Xposition Yposition Zposition Zrotation Xrotation Yrotation
                  JOINT LeftFinger01
                  {
                    OFFSET -1.1471 -3.4929 2.6334
                    CHANNELS 6 Xposition Yposition Zposition Zrotation Xrotation Yrotation
                    JOINT LeftFinger02
                    {
                      OFFSET -0.823 -2.3 1.6571
                      CHANNELS 6 Xposition Yposition Zposition Zrotation Xrotation Yrotation
                      End Site
                      {
                        OFFSET -0.5822 -1.6914 1.1582
                      }
                    }
                  }
                }
              }
            }
          }
        }
        JOINT RightCollar
        {
          OFFSET -2.2603 21.606 7.4023
          CHANNELS 6 Xposition Yposition Zposition Zrotation Xrotation Yrotation
          JOINT RightShoulder
          {
            OFFSET -13.5187 -1.1334 -5.0155
            CHANNELS 6 Xposition Yposition Zposition Zrotation Xrotation Yrotation
            JOINT RightElbow
            {
              OFFSET 0.0994 -28.0499 -0.2431
              CHANNELS 6 Xposition Yposition Zposition Zrotation Xrotation Yrotation
              JOINT RightWrist
              {
                OFFSET -0.0679 -23.3996 -0.1402
                CHANNELS 6 Xposition Yposition Zposition Zrotation Xrotation Yrotation
                JOINT RightFinger1
                {
                  OFFSET -0.7932 -9.0691 2.5189
                  CHANNELS 6 Xposition Yposition Zposition Zrotation Xrotation Yrotation
                  JOINT RightFinger11
                  {
                    OFFSET 0.8272 -3.3923 0.5977
                    CHANNELS 6 Xposition Yposition Zposition Zrotation Xrotation Yrotation
                    JOINT RightFinger12
                    {
                      OFFSET 0.565 -2.3158 0.4082
                      CHANNELS 6 Xposition Yposition Zposition Zrotation Xrotation Yrotation
                      End Site
                      {
                        OFFSET 0.4919 -1.6479 0.2673
                      }
                    }
                  }
                }
                JOINT RightFinger2
                {
                  OFFSET -0.916 -9.2044 0.2193
                  CHANNELS 6 Xposition Yposition Zposition Zrotation Xrotation Yrotation
                  JOINT RightFinger21
                  {
                    OFFSET -0.0117 -4.1944 -0.0248
                    CHANNELS 6 Xposition Yposition Zposition Zrotation Xrotation Yrotation
                    JOINT RightFinger22
                    {
                      OFFSET -0.0071 -2.3249 -0.0142
                      CHANNELS 6 Xposition Yposition Zposition Zrotation Xrotation Yrotation
                      End Site
                      {
                        OFFSET 0.1475 -2.0882 0.0028
                      }
                    }
                  }
                }
                JOINT RightFinger3
                {
                  OFFSET -0.6113 -8.7231 -2.0637
                  CHANNELS 6 Xposition Yposition Zposition Zrotation Xrotation Yrotation
                  JOINT RightFinger31
                  {
                    OFFSET 0.1927 -3.8059 -0.2383
                    CHANNELS 6 Xposition Yposition Zposition Zrotation Xrotation Yrotation
                    JOINT RightFinger32
                    {
                      OFFSET 0.1091 -2.1688 -0.1362
                      CHANNELS 6 Xposition Yposition Zposition Zrotation Xrotation Yrotation
                      End Site
                      {
                        OFFSET 0.2358 -1.9176 -0.0906
                      }
                    }
                  }
                }
                JOINT RightFinger4
                {
                  OFFSET 0.6151 -8.0947 -3.564
                  CHANNELS 6 Xposition Yposition Zposition Zrotation Xrotation Yrotation
                  JOINT RightFinger41
                  {
                    OFFSET 0.4882 -2.341 -0.6462
                    CHANNELS 6 Xposition Yposition Zposition Zrotation Xrotation Yrotation
                    JOINT RightFinger42
                    {
                      OFFSET 0.3574 -1.7166 -0.4742
                      CHANNELS 6 Xposition Yposition Zposition Zrotation Xrotation Yrotation
                      End Site
                      {
                        OFFSET 0.4187 -1.5237 -0.3496
                      }
                    }
                  }
                }
                JOINT RightFinger0
                {
                  OFFSET 1.4199 -1.8761 1.4221
                  CHANNELS 6 Xposition Yposition Zposition Zrotation Xrotation Yrotation
                  JOINT RightFinger01
                  {
                    OFFSET 1.1472 -3.4929 2.6336
                    CHANNELS 6 Xposition Yposition Zposition Zrotation Xrotation Yrotation
                    JOINT RightFinger02
                    {
                      OFFSET 0.8229 -2.3 1.6571
                      CHANNELS 6 Xposition Yposition Zposition Zrotation Xrotation Yrotation
                      End Site
                      {
                        OFFSET 0.5822 -1.6914 1.1582
                      }
                    }
                  }
                }
              }
            }
          }
        }
      }
    }
  }
  JOINT RightHip
  {
    OFFSET -9.412 3.9771 -0.7758
    CHANNELS 6 Xposition Yposition Zposition Zrotation Xrotation Yrotation
    JOINT RightKnee
    {
      OFFSET -0.7531 -40.938 0
      CHANNELS 6 Xposition Yposition Zposition Zrotation Xrotation Yrotation
      JOINT RightAnkle
      {
        OFFSET 0 -40.1986 0
        CHANNELS 6 Xposition Yposition Zposition Zrotation Xrotation Yrotation
        JOINT RightToe
        {
          OFFSET 0 -4.4182 9.239
          CHANNELS 6 Xposition Yposition Zposition Zrotation Xrotation Yrotation
          End Site
          {
            OFFSET 0 0 6.1981
          }
        }
      }
    }
  }
  JOINT LeftHip
  {
    OFFSET 9.4119 3.9773 -0.7758
    CHANNELS 6 Xposition Yposition Zposition Zrotation Xrotation Yrotation
    JOINT LeftKnee
    {
      OFFSET 0.7532 -40.9383 0
      CHANNELS 6 Xposition Yposition Zposition Zrotation Xrotation Yrotation
      JOINT LeftAnkle
      {
        OFFSET 0 -40.1986 0
        CHANNELS 6 Xposition Yposition Zposition Zrotation Xrotation Yrotation
        JOINT LeftToe
        {
          OFFSET 0 -4.4182 9.239
          CHANNELS 6 Xposition Yposition Zposition Zrotation Xrotation Yrotation
          End Site
          {
            OFFSET 0 0 6.1981
          }
        }
      }
    }
  }
}
MOTION
Frames:	4
Frame Time:	0.0333333
40.1612 1.1739 14.0599 -5.70428e-008 -87.1758 -6.00758e-008 0 8.7983 -4.7612 -0.0483649 5.51287 -0.117469 7.10543e-015 8.0291 0.4195 -0.085914 11.0259 -0.231859 -7.10543e-015 9.9351 -2.2114 -0.0859142 11.0259 -0.23186 0 22.3885 -0.4656 -6.88417e-007 -15.7588 -8.9735e-007 -0.0001 12.643 3.4389 -8.75718e-008 -14.9828 -3.37024e-007 2.2603 21.606 7.4023 11.5334 -0.865457 -5.25777 13.5163 -1.1332 -5.0146 24.6045 30.2016 18.6681 -0.0995 -28.05 -0.2431 -0.236202 -44.7269 -30.7428 0.0679 -23.3996 -0.1402 -30.053 -20.0332 -19.1996 0.7932 -9.069 2.5189 1.19271e-015 -4.77083e-015 8.94531e-016 -0.8272 -3.3923 0.5977 9.93923e-016 -6.36111e-015 7.35503e-015 -0.5649 -2.3158 0.4082 1.19271e-015 -4.77083e-015 1.04362e-015 0.9159 -9.2044 0.2193 1.19271e-015 -4.77083e-015 8.94531e-016 0.0117 -4.1944 -0.0248 -0.012794 0.00230522 7.72828e-005 0.0071 -2.3249 -0.0142 2.18663e-015 -1.59028e-015 -2.78299e-015 0.6113 -8.7231 -2.0637 1.19271e-015 -4.77083e-015 8.94531e-016 -0.1927 -3.8059 -0.2383 -0.0160586 0.0029976 0.000853958 -0.1091 -2.1688 -0.1362 -1.39149e-015 -1.59028e-015 -3.47873e-016 -0.6151 -8.0947 -3.5641 1.19271e-015 -4.77083e-015 8.94531e-016 -0.4882 -2.341 -0.6462 -0.0125708 0.00309799 0.0028159 -0.3575 -1.7167 -0.4742 -1.78906e-015 3.18055e-015 1.49585e-014 -1.42 -1.8761 1.4223 1.19271e-015 -4.77083e-015 8.94531e-016 -1.1471 -3.4929 2.6334 9.93923e-016 -6.36111e-015 7.35503e-015 -0.823 -2.3 1.6571 1.19271e-015 -4.77083e-015 1.04362e-015 -2.2603 21.606 7.4023 -33.3207 25.637 -3.97236 -13.5187 -1.1334 -5.0155 -7.80279 35.5456 -18.392 0.0994 -28.0499 -0.2431 28.1049 -72.4103 54.5208 -0.0679 -23.3996 -0.1402 30.1143 -24.8236 18.4978 -0.7932 -9.0691 2.5189 1.8941e-007 3.15788e-006 5.4601e-006 0.8272 -3.3923 0.5977 -7.36549e-006 -9.95896e-006 9.42095e-007 0.565 -2.3158 0.4082 4.37326e-015 3.18055e-015 -1.80894e-014 -0.916 -9.2044 0.2193 1.8941e-007 3.15788e-006 5.4601e-006 -0.0117 -4.1944 -0.0248 0.0129387 0.00230324 -8.11072e-005 -0.0071 -2.3249 -0.0142 -7.95139e-016 -1.59028e-015 1.15295e-014 -0.6113 -8.7231 -2.0637 1.8941e-007 3.15788e-006 5.4601e-006 0.1927 -3.8059 -0.2383 0.0163334 0.0030305 -0.000879847 0.1091 -2.1688 -0.1362 -7.95139e-016 1.59028e-015 1.78906e-015 0.6151 -8.0947 -3.564 1.8941e-007 3.15788e-006 5.4601e-006 0.4882 -2.341 -0.6462 0.0145875 0.00368605 -0.00326454 0.3574 -1.7166 -0.4742 -1.59028e-015 -3.18055e-015 1.12313e-014 1.4199 -1.8761 1.4221 1.8941e-007 3.15788e-006 5.4601e-006 1.1472 -3.4929 2.6336 -7.36549e-006 -9.95896e-006 9.42095e-007 0.8229 -2.3 1.6571 4.37326e-015 3.18055e-015 -1.80894e-014 -9.412 3.9771 -0.7758 -65.3007 -40.7162 -27.9434 -0.7531 -40.938 8.88178e-016 172.904 65.9175 -175.078 -3.55271e-015 -40.1986 0 -43.8606 23.3199 60.4077 8.88178e-016 -4.4182 9.239 -4.72114e-016 0 1.49089e-016 9.4119 3.9773 -0.7758 30.1598 -11.8771 -26.492 0.7532 -40.9383 -3.55271e-015 -6.98326 28.5257 0.535165 7.10543e-015 -40.1986 0 11.0714 -0.999962 28.8296 -7.10543e-015 -4.4182 9.239 -4.41391e-032 1.59028e-015 1.59028e-015 
40.1625 1.1017 14.0317 4.72308e-007 -86.6079 4.51618e-007 0 8.7983 -4.7612 -0.0482201 5.48065 -0.117555 0 8.0291 0.4195 -0.0856756 10.9614 -0.232057 0 9.9351 -2.2114 -0.0856757 10.9614 -0.232058 0 22.3885 -0.4656 -3.62219e-007 -15.6034 -4.58466e-007 -0.0001 12.643 3.4389 5.71773e-008 -14.8555 -1.20863e-007 2.2603 21.606 7.4023 11.2742 -1.0963 -5.36372 13.5163 -1.1332 -5.0146 24.8285 30.1975 18.5897 -0.0995 -28.05 -0.2431 -0.150957 -44.3242 -30.6873 0.0679 -23.3996 -0.1402 -29.7445 -20.4537 -19.134 0.7932 -9.069 2.5189 -1.39149e-015 3.18055e-015 -1.98785e-016 -0.8272 -3.3923 0.5977 -1.19271e-015 0 -6.80837e-015 -0.5649 -2.3158 0.4082 -2.98177e-015 1.59028e-015 -7.95139e-016 0.9159 -9.2044 0.2193 -1.39149e-015 3.18055e-015 -1.98785e-016 0.0117 -4.1944 -0.0248 -0.0127928 0.00231593 8.11926e-005 0.0071 -2.3249 -0.0142 -1.59028e-015 0 4.37326e-015 0.6113 -8.7231 -2.0637 -1.39149e-015 3.18055e-015 -1.98785e-016 -0.1927 -3.8059 -0.2383 -0.0160802 0.00298919 0.000852941 -0.1091 -2.1688 -0.1362 5.96354e-016 -1.59028e-015 1.04362e-015 -0.6151 -8.0947 -3.5641 -1.39149e-015 3.18055e-015 -1.98785e-016 -0.4882 -2.341 -0.6462 -0.012519 0.00310778 0.0028129 -0.3575 -1.7167 -0.4742 -9.93923e-016 0 5.26779e-015 -1.42 -1.8761 1.4223 -1.39149e-015 3.18055e-015 -1.98785e-016 -1.1471 -3.4929 2.6334 -1.19271e-015 0 -6.80837e-015 -0.823 -2.3 1.6571 -2.98177e-015 1.59028e-015 -7.95139e-016 -2.2603 21.606 7.4023 -32.7445 25.4977 -4.15713 -13.5187 -1.1334 -5.0155 -8.1455 35.4476 -18.2478 0.0994 -28.0499 -0.2431 27.2758 -72.2331 53.7328 -0.0679 -23.3996 -0.1402 29.7363 -25.1327 18.4065 -0.7932 -9.0691 2.5189 -2.59227e-006 -6.92843e-007 -5.09383e-006 0.8272 -3.3923 0.5977 6.44899e-006 -2.46624e-006 -2.1047e-006 0.565 -2.3158 0.4082 -1.65792e-006 -3.99306e-007 -3.97104e-007 -0.916 -9.2044 0.2193 -2.59227e-006 -6.92843e-007 -5.09383e-006 -0.0117 -4.1944 -0.0248 0.0129534 0.00232632 -8.30715e-005 -0.0071 -2.3249 -0.0142 9.1918e-006 5.18105e-006 -8.15665e-006 -0.6113 -8.7231 -2.0637 -2.59227e-006 -6.92843e-007 -5.09383e-006 0.1927 -3.8059 -0.2383 0.0163232 0.00303421 -0.000876951 0.1091 -2.1688 -0.1362 1.76775e-007 -1.39938e-006 -5.84278e-006 0.6151 -8.0947 -3.564 -2.59227e-006 -6.92843e-007 -5.09383e-006 0.4882 -2.341 -0.6462 0.014569 0.00366838 -0.00326554 0.3574 -1.7166 -0.4742 -3.67843e-006 2.18791e-006 1.35553e-006 1.4199 -1.8761 1.4221 -2.59227e-006 -6.92843e-007 -5.09383e-006 1.1472 -3.4929 2.6336 6.44899e-006 -2.46624e-006 -2.1047e-006 0.8229 -2.3 1.6571 -1.65792e-006 -3.99306e-007 -3.97104e-007 -9.412 3.9771 -0.7758 -65.7528 -40.9662 -28.6469 -0.7531 -40.938 0 172.904 65.9187 -175.076 3.55271e-015 -40.1986 0 -43.8603 23.3202 60.4082 0 -4.4182 9.239 5.09306e-007 -3.19174e-006 -1.55052e-007 9.4119 3.9773 -0.7758 30.1934 -12.285 -26.5077 0.7532 -40.9383 -7.10543e-015 -6.91197 28.3483 0.511897 7.10543e-015 -40.1986 3.55271e-015 10.9728 -0.843718 29.096 7.10543e-015 -4.4182 9.239 3.18055e-015 -1.59028e-015 3.18055e-015 
40.1635 1.04236 14.0082 -7.8101e-008 -86.1428 -8.69645e-008 -7.10543e-015 8.7983 -4.7612 -0.0481007 5.4542 -0.117624 -7.10543e-015 8.0291 0.4195 -0.0854789 10.9085 -0.232215 0 9.9351 -2.2114 -0.0854789 10.9085 -0.232216 0 22.3885 -0.4656 -4.22467e-007 -15.4481 -5.34027e-007 -0.0001 12.643 3.4389 2.45306e-007 -14.7282 1.24262e-007 2.2603 21.606 7.4023 11.0618 -1.28477 -5.45149 13.5163 -1.1332 -5.0146 25.0116 30.1939 18.5256 -0.0995 -28.05 -0.2431 -0.08173 -43.9947 -30.6425 0.0679 -23.3996 -0.1402 -29.4903 -20.7977 -19.0777 0.7932 -9.069 2.5189 1.78906e-015 1.59028e-015 9.24349e-015 -0.8272 -3.3923 0.5977 -1.98785e-015 -1.59028e-015 9.49197e-015 -0.5649 -2.3158 0.4082 9.93923e-016 3.18055e-015 -3.52843e-015 0.9159 -9.2044 0.2193 1.78906e-015 1.59028e-015 9.24349e-015 0.0117 -4.1944 -0.0248 -0.0128398 0.00232688 8.35791e-005 0.0071 -2.3249 -0.0142 -1.98785e-015 3.18055e-015 -1.14301e-015 0.6113 -8.7231 -2.0637 1.78906e-015 1.59028e-015 9.24349e-015 -0.1927 -3.8059 -0.2383 -0.0160317 0.00299559 0.000854683 -0.1091 -2.1688 -0.1362 1.59028e-015 1.59028e-015 4.07509e-015 -0.6151 -8.0947 -3.5641 1.78906e-015 1.59028e-015 9.24349e-015 -0.4882 -2.341 -0.6462 -0.0126366 0.00313644 0.00283852 -0.3575 -1.7167 -0.4742 1.78906e-015 0 -1.09332e-015 -1.42 -1.8761 1.4223 1.78906e-015 1.59028e-015 9.24349e-015 -1.1471 -3.4929 2.6334 -1.98785e-015 -1.59028e-015 9.49197e-015 -0.823 -2.3 1.6571 9.93923e-016 3.18055e-015 -3.52843e-015 -2.2603 21.606 7.4023 -32.2736 25.3821 -4.3068 -13.5187 -1.1334 -5.0155 -8.42529 35.3667 -18.1307 0.0994 -28.0499 -0.2431 26.6115 -72.0849 53.1023 -0.0679 -23.3996 -0.1402 29.4255 -25.3851 18.3293 -0.7932 -9.0691 2.5189 -1.19271e-015 0 3.08116e-015 0.8272 -3.3923 0.5977 7.95139e-016 1.59028e-015 6.06293e-015 0.565 -2.3158 0.4082 -1.59028e-015 -1.59028e-015 5.66536e-015 -0.916 -9.2044 0.2193 -1.19271e-015 0 3.08116e-015 -0.0117 -4.1944 -0.0248 0.0129451 0.00231696 -9.02116e-005 -0.0071 -2.3249 -0.0142 8.16573e-031 3.18055e-015 -1.47101e-014 -0.6113 -8.7231 -2.0637 -1.19271e-015 0 3.08116e-015 0.1927 -3.8059 -0.2383 0.0163231 0.00302098 -0.000869456 0.1091 -2.1688 -0.1362 -2.38542e-015 3.18055e-015 1.5704e-014 0.6151 -8.0947 -3.564 -1.19271e-015 0 3.08116e-015 0.4882 -2.341 -0.6462 0.0145829 0.00368005 -0.00325933 0.3574 -1.7166 -0.4742 -7.95139e-016 0 -4.77083e-015 1.4199 -1.8761 1.4221 -1.19271e-015 0 3.08116e-015 1.1472 -3.4929 2.6336 7.95139e-016 1.59028e-015 6.06293e-015 0.8229 -2.3 1.6571 -1.59028e-015 -1.59028e-015 5.66536e-015 -9.412 3.9771 -0.7758 -66.1264 -41.1685 -29.2269 -0.7531 -40.938 0 172.903 65.9195 -175.076 0 -40.1986 0 -43.86 23.3203 60.4086 -4.44089e-016 -4.4182 9.239 3.99487e-007 1.39368e-008 1.45544e-007 9.4119 3.9773 -0.7758 30.2208 -12.6191 -26.52 0.7532 -40.9383 -3.55271e-015 -6.85378 28.2032 0.493083 0 -40.1986 3.55271e-015 10.8918 -0.716108 29.3142 7.10543e-015 -4.4182 9.239 1.44644e-006 -1.72707e-006 -6.66209e-006 
40.1645 0.98278 13.9841 -7.1693e-008 -85.6773 -9.07729e-008 7.10543e-015 8.7983 -4.7612 -0.0479811 5.42768 -0.117694 7.10543e-015 8.0291 0.4195 -0.085282 10.8555 -0.232373 7.10543e-015 9.9351 -2.2114 -0.0852822 10.8555 -0.232374 0 22.3885 -0.4656 -3.17981e-007 -15.2926 -5.45081e-007 -0.0001 12.643 3.4389 4.8681e-008 -14.6008 1.28912e-007 2.2603 21.606 7.4023 10.849 -1.47295 -5.53999 13.5163 -1.1332 -5.0146 25.1951 30.1898 18.4613 -0.0995 -28.05 -0.2431 -0.0134669 -43.6645 -30.5985 0.0679 -23.3996 -0.1402 -29.2352 -21.1417 -19.0195 0.7932 -9.069 2.5189 -7.0072e-007 -3.32537e-006 4.2599e-006 -0.8272 -3.3923 0.5977 1.19271e-015 1.59028e-014 -2.98177e-015 -0.5649 -2.3158 0.4082 3.57812e-015 1.11319e-014 -1.93815e-015 0.9159 -9.2044 0.2193 -7.0072e-007 -3.32537e-006 4.2599e-006 0.0117 -4.1944 -0.0248 -0.0128184 0.00231766 8.39236e-005 0.0071 -2.3249 -0.0142 -1.39149e-015 3.18055e-015 -3.67752e-015 0.6113 -8.7231 -2.0637 -7.0072e-007 -3.32537e-006 4.2599e-006 -0.1927 -3.8059 -0.2383 -0.0160861 0.00300468 0.000852764 -0.1091 -2.1688 -0.1362 2.98177e-015 0 3.8763e-015 -0.6151 -8.0947 -3.5641 -7.0072e-007 -3.32537e-006 4.2599e-006 -0.4882 -2.341 -0.6462 -0.0126313 0.00314184 0.0028338 -0.3575 -1.7167 -0.4742 2.4823e-006 -5.78548e-006 -2.70178e-006 -1.42 -1.8761 1.4223 -7.0072e-007 -3.32537e-006 4.2599e-006 -1.1471 -3.4929 2.6334 1.19271e-015 1.59028e-014 -2.98177e-015 -0.823 -2.3 1.6571 3.57812e-015 1.11319e-014 -1.93815e-015 -2.2603 21.606 7.4023 -31.8031 25.2653 -4.45538 -13.5187 -1.1334 -5.0155 -8.7046 35.2853 -18.0142 0.0994 -28.0499 -0.2431 25.9583 -71.9343 52.4829 -0.0679 -23.3996 -0.1402 29.1134 -25.6373 18.2505 -0.7932 -9.0691 2.5189 -1.96288e-007 -4.52039e-007 -5.46193e-006 0.8272 -3.3923 0.5977 -9.18797e-006 -5.23272e-006 8.16019e-006 0.565 -2.3158 0.4082 1.59028e-015 1.59028e-015 -2.68359e-015 -0.916 -9.2044 0.2193 -1.96288e-007 -4.52039e-007 -5.46193e-006 -0.0117 -4.1944 -0.0248 0.0129618 0.00231115 -8.23709e-005 -0.0071 -2.3249 -0.0142 -1.93844e-007 8.38114e-007 -3.69604e-006 -0.6113 -8.7231 -2.0637 -1.96288e-007 -4.52039e-007 -5.46193e-006 0.1927 -3.8059 -0.2383 0.016328 0.00302331 -0.000872034 0.1091 -2.1688 -0.1362 -4.04382e-006 4.15276e-006 3.50492e-006 0.6151 -8.0947 -3.564 -1.96288e-007 -4.52039e-007 -5.46193e-006 0.4882 -2.341 -0.6462 0.0145667 0.00367682 -0.00326938 0.3574 -1.7166 -0.4742 -2.38561e-006 1.70982e-006 3.90192e-006 1.4199 -1.8761 1.4221 -1.96288e-007 -4.52039e-007 -5.46193e-006 1.1472 -3.4929 2.6336 -9.18797e-006 -5.23272e-006 8.16019e-006 0.8229 -2.3 1.6571 1.59028e-015 1.59028e-015 -2.68359e-015 -9.412 3.9771 -0.7758 -66.5038 -41.3684 -29.8107 -0.7531 -40.938 0 172.902 65.9201 -175.075 -3.55271e-015 -40.1986 -3.55271e-015 -43.8598 23.3203 60.4089 0 -4.4182 9.239 -2.33572e-015 0 -3.97569e-016 9.4119 3.9773 -0.7758 30.2482 -12.9533 -26.5321 0.7532 -40.9383 -3.55271e-015 -6.79579 28.0581 0.474507 0 -40.1986 -1.77636e-015 10.8104 -0.588871 29.5327 0 -4.4182 9.239 -7.23067e-007 1.31015e-006 3.33108e-006 
